<?xml version="1.0" encoding="utf-8"?>
<!-- Svg Vector Icons : http://www.onlinewebfonts.com/icon -->
<!DOCTYPE svg PUBLIC "-//W3C//DTD SVG 1.1//EN" "http://www.w3.org/Graphics/SVG/1.1/DTD/svg11.dtd">
<svg version="1.1" xmlns="http://www.w3.org/2000/svg" xmlns:xlink="http://www.w3.org/1999/xlink" x="0px" y="0px" viewBox="0 0 256 256" enable-background="new 0 0 256 256" xml:space="preserve">
<metadata> Svg Vector Icons : http://www.onlinewebfonts.com/icon </metadata>
<g><g><path fill="#000000" d="M166.4,128c0,43.2-35,78.2-78.2,78.2C45,206.2,10,171.2,10,128l0,0V68.3c0-10.2,8.3-18.5,18.5-18.5c10.2,0,18.5,8.3,18.5,18.5V128c0,22.7,18.4,41.2,41.2,41.2c22.8,0,41.2-18.4,41.2-41.2V68.3c0-10.2,8.3-18.5,18.5-18.5c10.2,0,18.5,8.3,18.5,18.5L166.4,128L166.4,128z M246,187.7c0,10.2-8.3,18.5-18.5,18.5c-10.2,0-18.5-8.3-18.5-18.5V68.3c0-10.2,8.3-18.5,18.5-18.5c10.2,0,18.5,8.3,18.5,18.5V187.7z"/></g></g>
</svg>